<svg width="20" height="20" viewBox="0 0 20 20" fill="none" xmlns="http://www.w3.org/2000/svg">
<path d="M17.8741 4.06342H16.2488V1.56579C16.2488 1.18924 16.0009 0.941406 15.6244 0.941406H3.75116C3.37461 0.941406 3.12674 1.18924 3.12674 1.56579V4.06342H2.12581C0.815037 4.06342 0 4.74978 0 5.87466V16.623C0 17.7478 0.93903 19.0586 2.12585 19.0586H17.8741C19.1229 19.0586 20 17.7478 20 16.623V5.87466C20 4.74978 19.1229 4.06342 17.8741 4.06342ZM16.2488 5.31222H17.2831L16.2488 6.12726V5.31222ZM4.37562 2.19021H15V7.11393L10.6244 10.5649L9.93806 11.1273L4.37562 6.81842V2.19021ZM3.12678 5.31222V5.8508L2.43566 5.31222H3.12678ZM1.25356 16.623V5.97476L7.78835 11.0128L1.25356 16.6802C1.25356 16.6611 1.25356 16.6421 1.25356 16.623ZM17.879 17.8097L2.12585 17.8098C2.04958 17.8098 1.97331 17.7907 1.90184 17.7574L8.78936 11.7898L9.19477 12.1373C9.62158 12.5032 10.2522 12.5005 10.6759 12.1309L11.1106 11.7516L18.0077 17.7859C17.9648 17.8002 17.9219 17.8097 17.879 17.8097ZM18.7512 16.6277C18.7512 16.6801 18.7464 16.7326 18.7369 16.7898L12.0972 10.9748L18.7416 5.75551C18.7512 5.80792 18.7512 5.85084 18.7512 5.87943V16.6277Z" fill="white"/>
</svg>
