<svg width="20" height="20" viewBox="0 0 20 20" fill="none" xmlns="http://www.w3.org/2000/svg">
<path d="M9.99475 6.58984C8.11792 6.58984 6.59082 8.11694 6.59082 9.99393C6.59082 11.8708 8.11792 13.3979 9.99475 13.3979C11.8717 13.3979 13.3988 11.8708 13.3988 9.99393C13.3988 8.11694 11.8717 6.58984 9.99475 6.58984Z" fill="#FCBA13"/>
<path d="M19.4142 9.40794H17.2636C16.9796 5.85311 14.1354 3.00872 10.5804 2.72491V0.585784C10.5804 0.262298 10.3181 0 9.99464 0C9.67115 0 9.40886 0.262298 9.40886 0.585784V2.72491C5.85387 3.00872 3.00964 5.85311 2.72567 9.40794H0.585784C0.262298 9.40794 0 9.67024 0 9.99388C0 10.3174 0.262298 10.5797 0.585784 10.5797H2.72567C3.00964 14.1345 5.85387 16.9789 9.40886 17.2628V19.4018C9.40886 19.7253 9.67115 19.9876 9.99464 19.9876C10.3183 19.9876 10.5804 19.7253 10.5804 19.4018V17.2628C14.1354 16.9789 16.9798 14.1345 17.2636 10.5797H19.4142C19.7377 10.5797 20 10.3174 20 9.99388C20 9.67024 19.7377 9.40794 19.4142 9.40794ZM9.99464 16.1148C6.61956 16.1148 3.87374 13.3688 3.87374 9.99388C3.87374 6.61879 6.61956 3.87283 9.99464 3.87283C13.3697 3.87283 16.1155 6.61879 16.1155 9.99388C16.1155 13.3688 13.3697 16.1148 9.99464 16.1148Z" fill="#FCBA13"/>
</svg>
